<svg id="crest" data-name="UBC Crest"
  xmlns="http://www.w3.org/2000/svg" viewBox="0 0 49.5 67.5">
  <defs>
    <style>.cls-1{fill:#002145;}</style>
  </defs>
  <title>UBC Logo</title>
  <path class="cls-1" d="M24.75,25.07l2.64,19.18,8.67-14.49-3.68,15.9,9.35-9L36.86,48.52l7.78-5.81C41,52.56,37.86,58.09,24.75,62.58h0c-13.12-4.49-16.27-10-19.89-19.87l7.78,5.81L7.77,36.71l9.35,8.95L13.44,29.72l8.67,14.53Z"/>
  <path class="cls-1" d="M11,18.65c-4,0-6.35-2.13-6.35-5.7V4.4H7.95v8.42C7.95,14.9,9,16,11,16a2.81,2.81,0,0,0,3.12-3.16V4.4h3.32v8.5c0,3.55-2.47,5.76-6.46,5.76"/>
  <path class="cls-1" d="M23.46,10h1.2c1.6,0,2.49-.6,2.49-1.69s-.77-1.6-2.36-1.6H23.46Zm0,6h1.42c1.28,0,2.8-.33,2.8-1.89s-1.55-2-2.85-2H23.46Zm1.42,2.34H20.25v-14h4.67c3.41,0,5.29,1.33,5.29,3.72a3,3,0,0,1-1.91,2.83,3.34,3.34,0,0,1,2.56,3.33c0,2.68-2.13,4.15-6,4.15"/>
  <path class="cls-1" d="M40.09,18.65c-4.54,0-7.47-2.83-7.47-7.23s3-7.26,7.56-7.26a8.67,8.67,0,0,1,4.31,1l.11.06-.49,2.85-.22-.14a6.25,6.25,0,0,0-3.64-1.17c-2.7,0-4.31,1.74-4.31,4.65S37.61,16,40.29,16a7.32,7.32,0,0,0,3.83-1.17l.21-.13.46,2.66-.1.06A9.49,9.49,0,0,1,40,18.65"/>
  <path class="cls-1" d="M0,0V36.61C0,52,8.37,63.13,24.75,67.5,41.13,63.13,49.5,52,49.5,36.61V0ZM24.75,65.56C9.25,61.17,1.88,50.95,1.88,36.37V1.88H47.63v34.5C47.63,50.95,40.25,61.17,24.75,65.56Z"/>
  <path class="cls-1" d="M24.75,23.38c3.45,0,3.92,1.4,6.7,1.38s3.24-1.38,6.7-1.38,3.93,1.4,6.7,1.38V21.55c-2.77,0-3.25-1.36-6.7-1.36s-3.9,1.38-6.7,1.36-3.2-1.36-6.7-1.36-3.92,1.38-6.7,1.36-3.24-1.36-6.7-1.36-3.93,1.38-6.7,1.36v3.21c2.77,0,3.25-1.38,6.7-1.38s3.93,1.4,6.7,1.38S21.25,23.38,24.75,23.38Z"/>
  <path class="cls-1" d="M26.94,29.19c1.66.4,2.46,1.16,4.51,1.15,2.77,0,3.24-1.38,6.7-1.38s3.93,1.4,6.7,1.38V27.12c-2.77,0-3.25-1.36-6.7-1.36s-3.9,1.38-6.7,1.36c-2.23,0-3-.87-5-1.22Z"/>
  <path class="cls-1" d="M18,30.33c2,0,2.84-.75,4.51-1.15L23,25.89c-2,.35-2.73,1.24-5,1.22-2.77,0-3.24-1.36-6.7-1.36s-3.93,1.38-6.7,1.36v3.21c2.77,0,3.25-1.38,6.7-1.38S15.25,30.35,18,30.33Z"/>
  <path class="cls-1" d="M27.74,35a12.48,12.48,0,0,0,2.78.86l1.93-3.22a7,7,0,0,1-1,.06c-1.91,0-2.73-.64-4.17-1Z"/>
  <path class="cls-1" d="M36.57,34.64a10,10,0,0,1,1.57-.12c3.45,0,3.93,1.4,6.7,1.38V32.69c-2.77,0-3.25-1.36-6.7-1.36h-.81Z"/>
  <path class="cls-1" d="M12.93,34.64l-.76-3.28h-.81c-3.45,0-3.93,1.38-6.7,1.36v3.21c2.77,0,3.25-1.38,6.7-1.38A10,10,0,0,1,12.93,34.64Z"/>
  <path class="cls-1" d="M19,35.85A12.46,12.46,0,0,0,21.76,35l.49-3.34c-1.44.41-2.26,1.06-4.17,1a7,7,0,0,1-1-.06Z"/>
</svg>
